<?xml version="1.0" standalone="no"?>
<!DOCTYPE svg PUBLIC "-//W3C//DTD SVG 20010904//EN"
 "http://www.w3.org/TR/2001/REC-SVG-20010904/DTD/svg10.dtd">
<svg version="1.0" xmlns="http://www.w3.org/2000/svg"
 width="256.000000pt" height="256.000000pt" viewBox="0 0 256.000000 256.000000"
 preserveAspectRatio="xMidYMid meet">
<metadata>
Created by potrace 1.11, written by Peter Selinger 2001-2013
</metadata>
<g transform="translate(0.000000,256.000000) scale(0.100000,-0.100000)"
fill="#000000" stroke="none">
<path d="M1128 1870 c-88 -23 -139 -48 -215 -104 -108 -79 -194 -210 -224
-339 -12 -52 -16 -57 -41 -57 -70 0 -117 -55 -125 -148 -10 -114 32 -188 108
-185 28 1 46 -4 60 -18 10 -10 25 -19 32 -19 7 0 24 -19 37 -42 52 -94 175
-199 286 -246 141 -59 313 -62 454 -6 118 46 246 156 304 261 34 59 72 173 79
233 4 36 14 54 49 91 47 48 73 113 64 159 -2 14 -5 30 -5 37 -2 21 -62 83 -81
83 -11 0 -38 20 -61 45 -28 29 -51 45 -67 45 -16 0 -48 22 -94 65 -153 141
-366 196 -560 145z"/>
</g>
</svg>
